<svg width="1418" height="702" xmlns="http://www.w3.org/2000/svg"><g><path d="M-71,-70L-76,829L-57,475Z" fill="#a0dad8" stroke="#a0dad8"/><path d="M-71,-70L-57,475L-54,258Z" fill="#d1fad6" stroke="#d1fad6"/><path d="M-71,-70L-54,258L-45,79Z" fill="#efffdb" stroke="#efffdb"/><path d="M-71,-70L-45,79L63,-48Z" fill="#ffffe1" stroke="#ffffe1"/><path d="M-71,-70L63,-48L194,-73Z" fill="#f7fce3" stroke="#f7fce3"/><path d="M63,-48L-45,79L59,64Z" fill="#f6fedc" stroke="#f6fedc"/><path d="M63,-48L59,64L159,49Z" fill="#effadb" stroke="#effadb"/><path d="M63,-48L159,49L194,-73Z" fill="#edf8dd" stroke="#edf8dd"/><path d="M194,-73L159,49L296,37Z" fill="#e2f4d8" stroke="#e2f4d8"/><path d="M194,-73L296,37L299,-40Z" fill="#dcf2d9" stroke="#dcf2d9"/><path d="M194,-73L299,-40L411,-57Z" fill="#d7f0da" stroke="#d7f0da"/><path d="M194,-73L411,-57L695,-75Z" fill="#c6e9db" stroke="#c6e9db"/><path d="M299,-40L296,37L411,-57Z" fill="#d3eed6" stroke="#d3eed6"/><path d="M411,-57L296,37L388,83Z" fill="#cbecd2" stroke="#cbecd2"/><path d="M411,-57L388,83L492,75Z" fill="#c0e9d3" stroke="#c0e9d3"/><path d="M411,-57L492,75L496,-40Z" fill="#c1e7d7" stroke="#c1e7d7"/><path d="M411,-57L496,-40L695,-75Z" fill="#b8e4dc" stroke="#b8e4dc"/><path d="M496,-40L492,75L593,-30Z" fill="#b8e4d8" stroke="#b8e4d8"/><path d="M496,-40L593,-30L695,-75Z" fill="#b0e1dd" stroke="#b0e1dd"/><path d="M593,-30L492,75L633,69Z" fill="#ace2d6" stroke="#ace2d6"/><path d="M593,-30L633,69L695,-75Z" fill="#aadedb" stroke="#aadedb"/><path d="M695,-75L633,69L706,82Z" fill="#a0dcd9" stroke="#a0dcd9"/><path d="M695,-75L706,82L801,65Z" fill="#9bd8d9" stroke="#9bd8d9"/><path d="M695,-75L801,65L809,-70Z" fill="#9ed3db" stroke="#9ed3db"/><path d="M695,-75L809,-70L907,-73Z" fill="#9ccfde" stroke="#9ccfde"/><path d="M695,-75L907,-73L1146,-75Z" fill="#97c1da" stroke="#97c1da"/><path d="M809,-70L801,65L907,-73Z" fill="#9bcbd9" stroke="#9bcbd9"/><path d="M907,-73L801,65L958,37Z" fill="#97c4d4" stroke="#97c4d4"/><path d="M907,-73L958,37L1059,-27Z" fill="#95bad3" stroke="#95bad3"/><path d="M907,-73L1059,-27L1146,-75Z" fill="#92b2d3" stroke="#92b2d3"/><path d="M1059,-27L958,37L1043,51Z" fill="#8fb4ce" stroke="#8fb4ce"/><path d="M1059,-27L1043,51L1171,69Z" fill="#8aabca" stroke="#8aabca"/><path d="M1059,-27L1171,69L1146,-75Z" fill="#8ea7cc" stroke="#8ea7cc"/><path d="M1146,-75L1171,69L1251,28Z" fill="#8a9fc8" stroke="#8a9fc8"/><path d="M1146,-75L1251,28L1289,-65Z" fill="#8a9aca" stroke="#8a9aca"/><path d="M1289,-65L1251,28L1352,49Z" fill="#8692c4" stroke="#8692c4"/><path d="M1289,-65L1352,49L1394,-52Z" fill="#848cc5" stroke="#848cc5"/><path d="M1289,-65L1394,-52L1501,-44Z" fill="#8286c5" stroke="#8286c5"/><path d="M1394,-52L1352,49L1480,67Z" fill="#7e84bf" stroke="#7e84bf"/><path d="M1394,-52L1480,67L1501,-44Z" fill="#8080bf" stroke="#8080bf"/><path d="M1501,-44L1480,67L1486,287Z" fill="#6d80b5" stroke="#6d80b5"/><path d="M1501,-44L1486,287L1513,632Z" fill="#3a73b5" stroke="#3a73b5"/><path d="M-45,79L-54,258L-33,161Z" fill="#e1ffd4" stroke="#e1ffd4"/><path d="M-45,79L-33,161L32,153Z" fill="#e8ffd6" stroke="#e8ffd6"/><path d="M-45,79L32,153L59,64Z" fill="#ecfed7" stroke="#ecfed7"/><path d="M59,64L32,153L142,151Z" fill="#dffbd3" stroke="#dffbd3"/><path d="M59,64L142,151L159,49Z" fill="#dff9d5" stroke="#dff9d5"/><path d="M159,49L142,151L262,163Z" fill="#d1f5d0" stroke="#d1f5d0"/><path d="M159,49L262,163L296,37Z" fill="#d1f3d1" stroke="#d1f3d1"/><path d="M296,37L262,163L366,163Z" fill="#c1efcc" stroke="#c1efcc"/><path d="M296,37L366,163L388,83Z" fill="#c0edcc" stroke="#c0edcc"/><path d="M388,83L366,163L497,180Z" fill="#aeeaca" stroke="#aeeaca"/><path d="M388,83L497,180L492,75Z" fill="#aee7cd" stroke="#aee7cd"/><path d="M492,75L497,180L592,191Z" fill="#9ee4cc" stroke="#9ee4cc"/><path d="M492,75L592,191L633,69Z" fill="#9fe2d0" stroke="#9fe2d0"/><path d="M633,69L592,191L685,171Z" fill="#90decf" stroke="#90decf"/><path d="M633,69L685,171L706,82Z" fill="#91dcd2" stroke="#91dcd2"/><path d="M706,82L685,171L801,65Z" fill="#8cd8d2" stroke="#8cd8d2"/><path d="M801,65L685,171L848,176Z" fill="#85d2ce" stroke="#85d2ce"/><path d="M801,65L848,176L909,149Z" fill="#82c9cc" stroke="#82c9cc"/><path d="M801,65L909,149L958,37Z" fill="#89c4ce" stroke="#89c4ce"/><path d="M958,37L909,149L1021,158Z" fill="#81bbc9" stroke="#81bbc9"/><path d="M958,37L1021,158L1043,51Z" fill="#85b6c9" stroke="#85b6c9"/><path d="M1043,51L1021,158L1126,182Z" fill="#79afc3" stroke="#79afc3"/><path d="M1043,51L1126,182L1171,69Z" fill="#7da9c4" stroke="#7da9c4"/><path d="M1171,69L1126,182L1277,171Z" fill="#729fbe" stroke="#729fbe"/><path d="M1171,69L1277,171L1251,28Z" fill="#799ac0" stroke="#799ac0"/><path d="M1251,28L1277,171L1352,49Z" fill="#7892be" stroke="#7892be"/><path d="M1352,49L1277,171L1376,158Z" fill="#6e8db9" stroke="#6e8db9"/><path d="M1352,49L1376,158L1480,67Z" fill="#7185b9" stroke="#7185b9"/><path d="M1480,67L1376,158L1457,166Z" fill="#6980b4" stroke="#6980b4"/><path d="M1480,67L1457,166L1486,287Z" fill="#6180b0" stroke="#6180b0"/><path d="M-33,161L-54,258L69,245Z" fill="#d1fad4" stroke="#d1fad4"/><path d="M-33,161L69,245L32,153Z" fill="#d9fdd1" stroke="#d9fdd1"/><path d="M32,153L69,245L142,151Z" fill="#d3fad0" stroke="#d3fad0"/><path d="M142,151L69,245L143,252Z" fill="#c3f5d0" stroke="#c3f5d0"/><path d="M142,151L143,252L262,163Z" fill="#c3f4cc" stroke="#c3f4cc"/><path d="M262,163L143,252L278,296Z" fill="#aeedce" stroke="#aeedce"/><path d="M262,163L278,296L386,257Z" fill="#a2e8cb" stroke="#a2e8cb"/><path d="M262,163L386,257L366,163Z" fill="#adecc7" stroke="#adecc7"/><path d="M366,163L386,257L497,180Z" fill="#a0e7c9" stroke="#a0e7c9"/><path d="M497,180L386,257L478,283Z" fill="#8ee1cb" stroke="#8ee1cb"/><path d="M497,180L478,283L593,255Z" fill="#85ddcd" stroke="#85ddcd"/><path d="M497,180L593,255L592,191Z" fill="#8adfcc" stroke="#8adfcc"/><path d="M592,191L593,255L685,171Z" fill="#82dccd" stroke="#82dccd"/><path d="M685,171L593,255L719,302Z" fill="#71d5d0" stroke="#71d5d0"/><path d="M685,171L719,302L848,176Z" fill="#71d1ce" stroke="#71d1ce"/><path d="M848,176L719,302L851,286Z" fill="#63c6ce" stroke="#63c6ce"/><path d="M848,176L851,286L928,272Z" fill="#63bfcb" stroke="#63bfcb"/><path d="M848,176L928,272L909,149Z" fill="#71c1c8" stroke="#71c1c8"/><path d="M909,149L928,272L1021,158Z" fill="#71bbc5" stroke="#71bbc5"/><path d="M1021,158L928,272L1027,247Z" fill="#64b2c5" stroke="#64b2c5"/><path d="M1021,158L1027,247L1126,182Z" fill="#6badc1" stroke="#6badc1"/><path d="M1126,182L1027,247L1177,247Z" fill="#5fa3c0" stroke="#5fa3c0"/><path d="M1126,182L1177,247L1277,171Z" fill="#649cbc" stroke="#649cbc"/><path d="M1277,171L1177,247L1253,256Z" fill="#5a94bb" stroke="#5a94bb"/><path d="M1277,171L1253,256L1383,292Z" fill="#528aba" stroke="#528aba"/><path d="M1277,171L1383,292L1376,158Z" fill="#5a88b6" stroke="#5a88b6"/><path d="M1376,158L1383,292L1457,166Z" fill="#5881b4" stroke="#5881b4"/><path d="M1457,166L1383,292L1486,287Z" fill="#4978b5" stroke="#4978b5"/><path d="M-54,258L-57,475L-44,411Z" fill="#a3e3da" stroke="#a3e3da"/><path d="M-54,258L-44,411L71,370Z" fill="#a8eddb" stroke="#a8eddb"/><path d="M-54,258L71,370L69,245Z" fill="#b6f1d7" stroke="#b6f1d7"/><path d="M69,245L71,370L143,252Z" fill="#aeeed5" stroke="#aeeed5"/><path d="M143,252L71,370L183,390Z" fill="#99e7d6" stroke="#99e7d6"/><path d="M143,252L183,390L278,296Z" fill="#98e6d2" stroke="#98e6d2"/><path d="M278,296L183,390L255,413Z" fill="#85dbd2" stroke="#85dbd2"/><path d="M278,296L255,413L376,370Z" fill="#7ddad0" stroke="#7ddad0"/><path d="M278,296L376,370L386,257Z" fill="#86dfcd" stroke="#86dfcd"/><path d="M386,257L376,370L478,283Z" fill="#7fdcce" stroke="#7fdcce"/><path d="M478,283L376,370L498,377Z" fill="#6dd6d1" stroke="#6dd6d1"/><path d="M478,283L498,377L593,255Z" fill="#6fd6d1" stroke="#6fd6d1"/><path d="M593,255L498,377L599,376Z" fill="#60d1d3" stroke="#60d1d3"/><path d="M593,255L599,376L719,302Z" fill="#5ed0d4" stroke="#5ed0d4"/><path d="M719,302L599,376L724,400Z" fill="#4ac7d6" stroke="#4ac7d6"/><path d="M719,302L724,400L823,377Z" fill="#44bfd4" stroke="#44bfd4"/><path d="M719,302L823,377L851,286Z" fill="#4dc0d2" stroke="#4dc0d2"/><path d="M851,286L823,377L963,392Z" fill="#40b3d1" stroke="#40b3d1"/><path d="M851,286L963,392L928,272Z" fill="#49b2cd" stroke="#49b2cd"/><path d="M928,272L963,392L1027,247Z" fill="#4bacca" stroke="#4bacca"/><path d="M1027,247L963,392L1075,379Z" fill="#3ea2ca" stroke="#3ea2ca"/><path d="M1027,247L1075,379L1177,247Z" fill="#4a9fc5" stroke="#4a9fc5"/><path d="M1177,247L1075,379L1171,412Z" fill="#3693c6" stroke="#3693c6"/><path d="M1177,247L1171,412L1253,256Z" fill="#4190c1" stroke="#4190c1"/><path d="M1253,256L1171,412L1285,400Z" fill="#3085c2" stroke="#3085c2"/><path d="M1253,256L1285,400L1383,292Z" fill="#3982be" stroke="#3982be"/><path d="M1383,292L1285,400L1363,394Z" fill="#2b75bd" stroke="#2b75bd"/><path d="M1383,292L1363,394L1476,369Z" fill="#2971bc" stroke="#2971bc"/><path d="M1383,292L1476,369L1486,287Z" fill="#3271b8" stroke="#3271b8"/><path d="M1486,287L1476,369L1496,505Z" fill="#2362b5" stroke="#2362b5"/><path d="M1486,287L1496,505L1513,632Z" fill="#1a48ac" stroke="#1a48ac"/><path d="M-44,411L-57,475L73,496Z" fill="#9bcbd1" stroke="#9bcbd1"/><path d="M-44,411L73,496L71,370Z" fill="#9ad4d3" stroke="#9ad4d3"/><path d="M71,370L73,496L183,390Z" fill="#91d3d1" stroke="#91d3d1"/><path d="M183,390L73,496L194,476Z" fill="#87c5cc" stroke="#87c5cc"/><path d="M183,390L194,476L255,413Z" fill="#82cbcd" stroke="#82cbcd"/><path d="M255,413L194,476L255,499Z" fill="#7bbfc8" stroke="#7bbfc8"/><path d="M255,413L255,499L380,476Z" fill="#73bbc6" stroke="#73bbc6"/><path d="M255,413L380,476L376,370Z" fill="#73c6c9" stroke="#73c6c9"/><path d="M376,370L380,476L474,486Z" fill="#66bbc8" stroke="#66bbc8"/><path d="M376,370L474,486L498,377Z" fill="#64c3cb" stroke="#64c3cb"/><path d="M498,377L474,486L599,376Z" fill="#5abfcd" stroke="#5abfcd"/><path d="M599,376L474,486L634,516Z" fill="#4faeca" stroke="#4faeca"/><path d="M599,376L634,516L724,400Z" fill="#46b3ce" stroke="#46b3ce"/><path d="M724,400L634,516L728,505Z" fill="#3ca4cb" stroke="#3ca4cb"/><path d="M724,400L728,505L825,471Z" fill="#3aa2cb" stroke="#3aa2cb"/><path d="M724,400L825,471L823,377Z" fill="#3daace" stroke="#3daace"/><path d="M823,377L825,471L963,392Z" fill="#3aa1cb" stroke="#3aa1cb"/><path d="M963,392L825,471L961,471Z" fill="#3492c6" stroke="#3492c6"/><path d="M963,392L961,471L1075,379Z" fill="#3491c6" stroke="#3491c6"/><path d="M1075,379L961,471L1044,522Z" fill="#2e80c0" stroke="#2e80c0"/><path d="M1075,379L1044,522L1135,473Z" fill="#2b79be" stroke="#2b79be"/><path d="M1075,379L1135,473L1171,412Z" fill="#2d7fc0" stroke="#2d7fc0"/><path d="M1171,412L1135,473L1289,485Z" fill="#276cba" stroke="#276cba"/><path d="M1171,412L1289,485L1285,400Z" fill="#276cba" stroke="#276cba"/><path d="M1285,400L1289,485L1363,394Z" fill="#2566b8" stroke="#2566b8"/><path d="M1363,394L1289,485L1391,486Z" fill="#2059b4" stroke="#2059b4"/><path d="M1363,394L1391,486L1476,369Z" fill="#225db5" stroke="#225db5"/><path d="M1476,369L1391,486L1496,505Z" fill="#1c4eb0" stroke="#1c4eb0"/><path d="M-57,475L-76,829L-42,703Z" fill="#858dbe" stroke="#858dbe"/><path d="M-57,475L-42,703L-27,603Z" fill="#8da4c5" stroke="#8da4c5"/><path d="M-57,475L-27,603L73,496Z" fill="#94b8ca" stroke="#94b8ca"/><path d="M73,496L-27,603L45,600Z" fill="#8caac5" stroke="#8caac5"/><path d="M73,496L45,600L168,582Z" fill="#84a9c4" stroke="#84a9c4"/><path d="M73,496L168,582L194,476Z" fill="#82b3c6" stroke="#82b3c6"/><path d="M194,476L168,582L255,499Z" fill="#79afc4" stroke="#79afc4"/><path d="M255,499L168,582L267,620Z" fill="#71a0be" stroke="#71a0be"/><path d="M255,499L267,620L359,587Z" fill="#689cbc" stroke="#689cbc"/><path d="M255,499L359,587L380,476Z" fill="#68a8c0" stroke="#68a8c0"/><path d="M380,476L359,587L474,486Z" fill="#5fa6c0" stroke="#5fa6c0"/><path d="M474,486L359,587L471,614Z" fill="#5697bd" stroke="#5697bd"/><path d="M474,486L471,614L587,609Z" fill="#4b90be" stroke="#4b90be"/><path d="M474,486L587,609L634,516Z" fill="#4798c2" stroke="#4798c2"/><path d="M634,516L587,609L686,632Z" fill="#3985bf" stroke="#3985bf"/><path d="M634,516L686,632L728,505Z" fill="#368dc3" stroke="#368dc3"/><path d="M728,505L686,632L850,627Z" fill="#2c7bbe" stroke="#2c7bbe"/><path d="M728,505L850,627L825,471Z" fill="#3085c2" stroke="#3085c2"/><path d="M825,471L850,627L917,598Z" fill="#2a75bc" stroke="#2a75bc"/><path d="M825,471L917,598L961,471Z" fill="#2e7fc0" stroke="#2e7fc0"/><path d="M961,471L917,598L1044,522Z" fill="#2971bb" stroke="#2971bb"/><path d="M1044,522L917,598L1051,589Z" fill="#2362b7" stroke="#2362b7"/><path d="M1044,522L1051,589L1154,606Z" fill="#1f57b3" stroke="#1f57b3"/><path d="M1044,522L1154,606L1135,473Z" fill="#225fb6" stroke="#225fb6"/><path d="M1135,473L1154,606L1286,579Z" fill="#1d4fb1" stroke="#1d4fb1"/><path d="M1135,473L1286,579L1289,485Z" fill="#1f56b3" stroke="#1f56b3"/><path d="M1289,485L1286,579L1376,582Z" fill="#1841ac" stroke="#1841ac"/><path d="M1289,485L1376,582L1391,486Z" fill="#1a46ae" stroke="#1a46ae"/><path d="M1391,486L1376,582L1496,505Z" fill="#163baa" stroke="#163baa"/><path d="M1496,505L1376,582L1513,632Z" fill="#0f2aa4" stroke="#0f2aa4"/><path d="M-27,603L-42,703L41,711Z" fill="#848cbd" stroke="#848cbd"/><path d="M-27,603L41,711L45,600Z" fill="#8595bf" stroke="#8595bf"/><path d="M45,600L41,711L137,714Z" fill="#7a87b9" stroke="#7a87b9"/><path d="M45,600L137,714L168,582Z" fill="#7992bc" stroke="#7992bc"/><path d="M168,582L137,714L267,620Z" fill="#6e8cb9" stroke="#6e8cb9"/><path d="M267,620L137,714L290,707Z" fill="#657eb3" stroke="#657eb3"/><path d="M267,620L290,707L359,587Z" fill="#5f86b5" stroke="#5f86b5"/><path d="M359,587L290,707L400,720Z" fill="#567ab0" stroke="#567ab0"/><path d="M359,587L400,720L471,614Z" fill="#5180b5" stroke="#5180b5"/><path d="M471,614L400,720L482,731Z" fill="#4770b1" stroke="#4770b1"/><path d="M471,614L482,731L607,689Z" fill="#3e6fb3" stroke="#3e6fb3"/><path d="M471,614L607,689L587,609Z" fill="#3e7ab8" stroke="#3e7ab8"/><path d="M587,609L607,689L686,632Z" fill="#3374b9" stroke="#3374b9"/><path d="M686,632L607,689L738,689Z" fill="#2a6ab8" stroke="#2a6ab8"/><path d="M686,632L738,689L850,627Z" fill="#2669b8" stroke="#2669b8"/><path d="M850,627L738,689L839,709Z" fill="#215ab4" stroke="#215ab4"/><path d="M850,627L839,709L924,713Z" fill="#1d50b1" stroke="#1d50b1"/><path d="M850,627L924,713L917,598Z" fill="#2058b3" stroke="#2058b3"/><path d="M917,598L924,713L1051,589Z" fill="#1e54b2" stroke="#1e54b2"/><path d="M1051,589L924,713L1068,726Z" fill="#1741ac" stroke="#1741ac"/><path d="M1051,589L1068,726L1154,606Z" fill="#1842ac" stroke="#1842ac"/><path d="M1154,606L1068,726L1147,721Z" fill="#1231a6" stroke="#1231a6"/><path d="M1154,606L1147,721L1284,694Z" fill="#102ba5" stroke="#102ba5"/><path d="M1154,606L1284,694L1286,579Z" fill="#1333a8" stroke="#1333a8"/><path d="M1286,579L1284,694L1376,582Z" fill="#112ca5" stroke="#112ca5"/><path d="M1376,582L1284,694L1346,739Z" fill="#0a1aa0" stroke="#0a1aa0"/><path d="M1376,582L1346,739L1503,723Z" fill="#060e9c" stroke="#060e9c"/><path d="M1376,582L1503,723L1513,632Z" fill="#08159d" stroke="#08159d"/><path d="M-42,703L-76,829L63,799Z" fill="#8080b2" stroke="#8080b2"/><path d="M-42,703L63,799L41,711Z" fill="#7d7fb5" stroke="#7d7fb5"/><path d="M41,711L63,799L137,714Z" fill="#757cb3" stroke="#757cb3"/><path d="M137,714L63,799L138,842Z" fill="#717aad" stroke="#717aad"/><path d="M137,714L138,842L264,803Z" fill="#6876ab" stroke="#6876ab"/><path d="M137,714L264,803L290,707Z" fill="#6174ad" stroke="#6174ad"/><path d="M290,707L264,803L397,814Z" fill="#566fa8" stroke="#566fa8"/><path d="M290,707L397,814L400,720Z" fill="#506da9" stroke="#506da9"/><path d="M400,720L397,814L482,731Z" fill="#476aaa" stroke="#476aaa"/><path d="M482,731L397,814L509,840Z" fill="#4268a7" stroke="#4268a7"/><path d="M482,731L509,840L579,843Z" fill="#3a65a7" stroke="#3a65a7"/><path d="M482,731L579,843L607,689Z" fill="#3563ad" stroke="#3563ad"/><path d="M607,689L579,843L703,797Z" fill="#2b5fac" stroke="#2b5fac"/><path d="M607,689L703,797L738,689Z" fill="#245db3" stroke="#245db3"/><path d="M738,689L703,797L839,709Z" fill="#1f55b0" stroke="#1f55b0"/><path d="M839,709L703,797L836,826Z" fill="#1d51aa" stroke="#1d51aa"/><path d="M839,709L836,826L924,713Z" fill="#1a48ab" stroke="#1a48ab"/><path d="M924,713L836,826L943,841Z" fill="#1843a5" stroke="#1843a5"/><path d="M924,713L943,841L1068,726Z" fill="#153aa5" stroke="#153aa5"/><path d="M1068,726L943,841L1041,845Z" fill="#13359f" stroke="#13359f"/><path d="M1068,726L1041,845L1173,801Z" fill="#102b9e" stroke="#102b9e"/><path d="M1068,726L1173,801L1147,721Z" fill="#0e27a0" stroke="#0e27a0"/><path d="M1147,721L1173,801L1284,694Z" fill="#0b1e9e" stroke="#0b1e9e"/><path d="M1284,694L1173,801L1239,828Z" fill="#0a1a9a" stroke="#0a1a9a"/><path d="M1284,694L1239,828L1346,739Z" fill="#071399" stroke="#071399"/><path d="M1346,739L1239,828L1378,830Z" fill="#060f94" stroke="#060f94"/><path d="M1346,739L1378,830L1471,818Z" fill="#030691" stroke="#030691"/><path d="M1346,739L1471,818L1503,723Z" fill="#010193" stroke="#010193"/><path d="M-76,829L138,842L63,799Z" fill="#7a7eac" stroke="#7a7eac"/><path d="M138,842L1041,845L579,843Z" fill="#3161a5" stroke="#3161a5"/><path d="M138,842L579,843L509,840Z" fill="#496aa1" stroke="#496aa1"/><path d="M138,842L509,840L397,814Z" fill="#526ea1" stroke="#526ea1"/><path d="M138,842L397,814L264,803Z" fill="#5c72a5" stroke="#5c72a5"/><path d="M579,843L1041,845L943,841Z" fill="#1a49a2" stroke="#1a49a2"/><path d="M579,843L943,841L836,826Z" fill="#1d52a5" stroke="#1d52a5"/><path d="M579,843L836,826L703,797Z" fill="#215baa" stroke="#215baa"/><path d="M1041,845L1378,830L1239,828Z" fill="#0a1c94" stroke="#0a1c94"/><path d="M1041,845L1239,828L1173,801Z" fill="#0d2498" stroke="#0d2498"/></g><filter id="noise"><feTurbulence type="fractalNoise" in="fillPaint" fill="#F00" baseFrequency="0.7" numOctaves="3" stitchTiles="stitch"/><feComponentTransfer><feFuncR type="linear" slope="2" intercept="-.5"/><feFuncG type="linear" slope="2" intercept="-.5"/><feFuncB type="linear" slope="2" intercept="-.5"/></feComponentTransfer><feColorMatrix type="matrix" values="0.3333 0.3333 0.3333 0 0 
 0.3333 0.3333 0.3333 0 0 
 0.3333 0.3333 0.3333 0 0 
 0 0 0 1 0"/></filter><rect opacity="1" width="100%" height="100%" filter="url(#noise)"/></svg>